<?xml version="1.0" standalone="no"?>
<!DOCTYPE svg PUBLIC "-//W3C//DTD SVG 20010904//EN"
 "http://www.w3.org/TR/2001/REC-SVG-20010904/DTD/svg10.dtd">
<svg version="1.0" xmlns="http://www.w3.org/2000/svg"
 width="1878.000000pt" height="755.000000pt" viewBox="0 0 1878.000000 755.000000"
 preserveAspectRatio="xMidYMid meet">

<g transform="translate(0.000000,755.000000) scale(0.100000,-0.100000)"
fill="#000000" stroke="none">
<path d="M9165 6140 c-196 -18 -386 -46 -506 -74 -35 -8 -107 -24 -159 -36
-316 -71 -426 -103 -735 -213 -56 -20 -149 -83 -209 -144 -12 -12 -49 -42 -82
-66 -146 -108 -313 -281 -439 -453 -27 -38 -56 -76 -63 -84 -21 -24 -110 -169
-144 -235 -33 -65 -108 -287 -108 -321 0 -12 -9 -57 -20 -100 -11 -44 -25
-144 -31 -224 -10 -127 -9 -155 5 -225 10 -44 22 -102 27 -130 18 -89 78 -252
143 -389 35 -73 67 -144 71 -157 4 -13 19 -44 33 -69 14 -25 31 -55 37 -68 17
-32 117 -146 191 -218 35 -33 107 -90 161 -126 193 -129 285 -188 292 -188 5
0 19 -9 33 -19 36 -29 138 -79 204 -100 33 -10 95 -32 139 -48 131 -49 237
-83 290 -93 28 -5 82 -16 120 -24 39 -8 174 -29 300 -47 218 -30 241 -31 435
-26 113 4 223 11 245 16 22 6 126 15 230 21 105 6 237 17 295 26 58 8 209 21
335 29 127 7 262 20 300 28 181 36 520 179 628 263 63 49 198 189 233 239 14
22 30 42 33 45 4 3 25 34 46 70 22 36 45 75 52 85 50 82 76 133 105 211 l33
89 -1 205 c-2 246 -19 604 -33 680 -6 30 -18 98 -27 150 -9 52 -20 100 -24
105 -5 6 -14 32 -21 59 -7 27 -27 88 -46 134 -18 47 -33 90 -33 96 0 20 -67
182 -95 232 -66 116 -138 224 -148 224 -7 0 -24 22 -38 48 -57 102 -259 334
-385 443 -87 75 -99 81 -230 130 -154 56 -194 69 -404 128 -80 23 -158 45
-175 51 -16 5 -48 12 -70 15 -22 4 -53 11 -70 15 -92 27 -574 53 -720 40z
m510 -46 c94 -8 184 -19 200 -24 17 -4 48 -11 70 -15 22 -3 54 -10 70 -15 17
-6 95 -28 175 -51 210 -59 250 -72 404 -128 119 -44 147 -59 198 -104 193
-168 389 -407 458 -556 13 -27 25 -41 33 -38 15 5 20 -2 80 -108 39 -67 107
-228 107 -251 0 -6 15 -49 33 -96 19 -46 39 -107 46 -134 7 -27 16 -53 21 -59
4 -5 15 -53 24 -105 9 -52 21 -120 27 -150 10 -56 23 -275 35 -615 5 -134 3
-203 -5 -235 -23 -84 -64 -185 -110 -265 -108 -191 -171 -274 -299 -396 -93
-90 -111 -102 -244 -168 -149 -73 -356 -149 -468 -170 -36 -7 -168 -19 -295
-27 -126 -7 -277 -20 -335 -28 -58 -9 -190 -20 -295 -26 -104 -6 -208 -16
-230 -21 -22 -5 -125 -12 -230 -16 -178 -5 -204 -4 -420 26 -126 18 -261 39
-300 47 -38 8 -92 19 -120 24 -53 10 -159 44 -290 93 -44 16 -106 38 -139 48
-62 20 -160 67 -204 98 -15 11 -89 58 -164 105 -244 153 -295 192 -391 306
-100 117 -152 196 -172 259 -4 13 -36 84 -71 157 -65 137 -125 300 -143 389
-5 28 -17 86 -26 130 -15 69 -15 98 -6 210 6 72 20 165 31 209 11 43 20 89 20
101 0 61 120 375 143 375 4 0 7 5 7 11 0 6 21 46 47 88 51 82 51 81 89 126 14
17 39 50 56 75 78 113 223 264 358 371 80 64 150 123 182 152 10 10 42 32 71
50 100 63 400 163 672 225 28 6 91 21 140 32 50 11 119 27 155 35 82 19 208
40 330 55 255 31 360 32 675 4z"/>
<path d="M8425 5424 c-94 -47 -96 -177 -4 -226 63 -34 142 -14 179 47 67 108
-59 238 -175 179z"/>
<path d="M10191 5362 c-90 -48 -92 -165 -5 -223 57 -37 133 -17 175 47 37 57
17 133 -47 175 -37 24 -80 24 -123 1z"/>
<path d="M8173 3734 c-5 -10 -8 -109 -8 -219 0 -187 2 -204 24 -260 22 -55
110 -165 133 -165 4 0 45 -24 91 -53 45 -29 98 -59 117 -67 19 -7 73 -31 118
-52 111 -51 245 -78 412 -85 162 -6 379 10 475 37 172 47 223 65 318 110 35
16 67 30 71 30 4 0 33 17 64 37 31 21 78 48 104 60 101 50 202 187 250 338 15
50 28 100 28 112 0 25 -18 41 -24 21 -3 -7 -17 -53 -31 -103 -45 -151 -148
-294 -244 -339 -25 -12 -72 -39 -103 -59 -31 -20 -59 -37 -62 -37 -3 0 -36
-14 -72 -31 -175 -80 -343 -125 -524 -140 -263 -22 -490 5 -652 79 -45 21 -99
45 -118 52 -19 8 -72 38 -117 67 -46 29 -87 53 -92 53 -20 0 -90 91 -112 146
-23 56 -24 71 -24 266 0 197 -5 244 -22 202z"/>
</g>
</svg>
